<svg width="35" height="35" viewBox="0 0 35 35" fill="none" xmlns="http://www.w3.org/2000/svg">
<path d="M17.4414 0C27.074 1.75238e-05 34.11028 7.801101 34.11028 17.4414C34.11028 27.074 27.074 34.11028 17.4414 34.11028C7.801101 34.11028 1.75249e-05 27.074 0 17.4414C0 7.80110 7.80110 0 17.4414 0ZM24.5596 10.4863C23.9076 10.5135 22.9022 10.8666 18.0664 12.877C16.3549 13.5833 12.9591 15.0233 7.87891 17.251C7.06389 17.577 6.62953 17.9033 6.5752 18.2021C6.49381 18.7997 7.36267 18.9897 8.44922 19.3428C9.34572 19.6416 10.5412 19.9951 11.166 19.9951C11.7364 19.9951 12.3612 19.7779 13.0674 19.2891C17.8179 16.0858 20.2632 14.4554 20.4297 14.4258C20.5384 14.3986 20.6745 14.3716 20.7832 14.4531C20.8918 14.5346 20.8652 14.6976 20.8652 14.752C20.783 15.1329 16.3001 19.1805 16.0557 19.4521C15.0778 20.457 13.9646 21.0818 15.6758 22.2227C17.17 23.2007 18.0392 23.8259 19.5605 24.8311C20.5386 25.4559 21.3268 26.2163 22.332 26.1348C22.7938 26.0803 23.2829 25.6456 23.5273 24.3418C24.125 21.2719 25.2391 14.5613 25.5107 11.8174C25.5378 11.5731 25.5105 11.2745 25.4834 11.1387C25.4562 11.0028 25.4013 10.8126 25.2383 10.6768C25.021 10.5139 24.6954 10.4863 24.5596 10.4863Z" fill="#F0EDE8" fill-opacity="0.3"/>
</svg>
