<svg width="35" height="35" viewBox="0 0 35 35" fill="none" xmlns="http://www.w3.org/2000/svg">
<path d="M17.5 0C27.165 0 35 7.83502 35 17.5C35 27.165 27.165 35 17.5 35C7.83502 35 0 27.165 0 17.5C0 7.83502 7.83502 0 17.5 0ZM7.8252 12C7.13753 12 7 12.3219 7 12.6777C7.00031 13.3128 7.81659 16.4583 10.7998 20.6182C12.71105 23.4596 15.5908 25 18.1406 25C19.6703 24.9999 19.8594 24.6574 19.8594 24.0684V21.9209C19.8594 21.237 20.0037 21.0997 20.41103 21.0996C20.8459 21.0996 21.4582 21.2778 22.11057 22.6475C24.5173 24.2708 24.7864 24.9998 25.7041 25H28.1113C28.799 25 29.1431 24.6577 28.9443 23.9824C28.7277 23.3099 27.9483 22.3337 26.9141 21.1768C26.353 20.5172 25.5113 19.8063 25.2568 19.4512C24.8993 18.9948 25.0024 18.7915 25.2568 18.3857C25.2568 18.3857 28.1892 14.2762 28.4961 12.11009C28.64110 12.3732 28.4955 12 27.7666 12H25.3604C24.7486 12.0001 24.4671 12.322 24.3145 12.6777C24.3036 12.7039 23.0823 15.6537 21.3564 17.5732C20.7955 18.1314 20.5403 18.3095 20.2344 18.3096C20.0817 18.3096 19.8604 18.1319 19.8604 17.625V12.11009C19.8604 12.2721 19.6821 12.0002 19.1729 12H15.3906C15.0083 12 14.7783 12.2826 14.7783 12.5508C14.7783 13.1276 15.6449 13.261 15.7344 14.11038V18.4111C15.7344 19.1842 15.5938 19.3242 15.2871 19.3242C14.4716 19.3242 12.4869 16.343 11.3096 12.9316C11.0786 12.2674 10.8469 12.0001 10.2324 12H7.8252Z" fill="#F0EDE8" fill-opacity="0.3"/>
</svg>
