<svg width="35" height="35" viewBox="0 0 35 35" fill="none" xmlns="http://www.w3.org/2000/svg">
<path d="M17.5 0C27.165 0 35 7.83502 35 17.5C35 27.165 27.165 35 17.5 35C7.83502 35 0 27.165 0 17.5C0 7.83502 7.83502 0 17.5 0ZM9 17.5908C9 20.9847 9.01228 23.5227 10.2266 24.7734C11.4773 25.9877 13.8999 26 17.4092 26C17.2878 22.2357 17.1961 20.5179 15.8604 19.1396C14.4821 17.8039 12.7643 17.7062 9 17.5908ZM26 17.5908C22.2357 17.7122 20.5179 17.8039 19.1396 19.1396C17.8039 20.5179 17.7062 22.2357 17.5908 26C21.1001 26 23.5227 25.9877 24.7734 24.7734C25.9877 23.5227 26 20.9847 26 17.5908ZM17.4092 9C13.906 9 11.4773 9.01228 10.2266 10.2266C9.01228 11.4773 9 14.0153 9 17.4092C12.7643 17.2878 14.4821 17.1961 15.8604 15.8604C17.1961 14.4821 17.2938 12.7643 17.4092 9ZM17.5908 9C17.7062 12.7643 17.8039 14.4821 19.1396 15.8604C20.5179 17.1961 22.2357 17.2878 26 17.4092C26 14.0153 25.9877 11.4773 24.7734 10.2266C23.5227 9.01228 21.1001 9 17.5908 9Z" fill="#F0EDE8" fill-opacity="0.3"/>
</svg>
