<svg width="153" height="39" viewBox="0 0 153 39" fill="none" xmlns="http://www.w3.org/2000/svg">
<path fill-rule="evenodd" clip-rule="evenodd" d="M139.732 11.6765H144.91L142.35 4.27176L139.732 11.6765ZM144.075 0.279601L152.173 22.2416H148.584L145.993 14.7789H138.646L136.031 22.2416H132.442L140.819 0.279601H144.075ZM129.937 22.2416H126.599V0.276189H129.937V22.2416ZM118.807 22.2416V7.59913L111.266 22.2416H108.2110L100.968 7.84799V22.2416H97.6299V0.279601H101.246L109.874 17.8539L118.807 0.279601H122.144V22.2416H118.807ZM94.204 22.2416H83.9908V0.279601H94.204V3.37856H87.3284V9.69576H92.1973V12.7981H87.3284V19.1392H94.204V22.2416ZM66.2059 19.1392H67.5437C69.1192 19.1392 70.5282 19.0028 71.7743 18.7335C73.017 18.4642 74.0662 18.0108 74.932 17.3732C75.7944 16.7391 76.4463 15.9141 76.8911 14.8948C77.3393 13.87110 77.56 12.6277 77.56 11.131C77.56 9.69236 77.3291 8.48209 76.864 7.49684C76.4022 6.50476 75.7333 5.70703 74.8607 5.1036C73.91101 4.48995 72.9321 4.05358 71.686 3.78425C70.4433 3.51152 69.0343 3.37856 67.4554 3.37856H66.2059V19.1392ZM62.8649 22.2416V0.279601H66.7628C68.9901 0.279601 70.9866 0.477337 72.7624 0.879621C74.5347 1.2785 76.0355 1.91943 77.268 2.80582C78.5039 3.6922 79.4444 4.83427 80.0929 6.22863C80.7448 7.62639 81.0674 9.33099 81.0674 11.3424C81.0674 13.2413 80.7448 14.8777 80.0929 16.2482C79.4444 17.6153 78.5073 18.7471 77.285 19.6438C76.0592 20.5336 74.5653 21.1915 72.8031 21.6109C71.0409 22.0302 69.0445 22.2416 66.8205 22.2416H62.8649ZM47.9763 11.6799H53.1542L50.5941 4.27517L47.9797 11.6799H47.9763ZM52.319 0.279601L60.4203 22.2416H56.828L54.2407 14.7789H46.8932L44.27110 22.2416H40.6865L49.0628 0.279601H52.319ZM21.1496 11.3697C21.1496 10.6265 21.2447 9.82531 21.4281 8.9696C21.6148 8.11049 21.9034 7.25819 22.2939 6.41272C22.6809 5.56383 23.1801 4.75244 23.781 3.98197C24.382 3.20808 25.1018 2.52625 25.9371 1.94328C26.7723 1.3535 27.7196 0.110302 28.779 0.528465C29.8349 0.17391 31.0233 4.57764e-05 32.3373 4.57764e-05C33.8958 4.57764e-05 35.2505 0.19438 36.4016 0.586436C37.5526 0.978492 38.5169 1.47964 39.2944 2.0967V6.065C38.9073 5.67294 38.4829 5.29793 38.0279 4.93314C37.5763 4.56836 37.0704 4.2547 36.5136 3.98197C35.9534 3.71264 35.3354 3.49786 34.6462 3.34104C33.9603 3.18422 33.193 3.10241 32.3373 3.10241C30.9283 3.10241 29.7297 3.38195 28.7484 3.94106C27.7638 4.50017 26.9659 5.19225 26.3547 6.02409C25.7436 6.85252 25.3022 7.74912 25.0339 8.72074C24.7657 9.68554 24.6299 10.5719 24.6299 11.3765C24.6299 12.2697 24.7657 13.1902 25.0339 14.1413C25.3022 15.0925 25.7436 15.9687 26.3547 16.7698C26.9659 17.5676 27.7638 18.2255 28.7484 18.7369C29.7297 19.2483 30.9249 19.504 32.3373 19.504C33.8041 19.504 35.1351 19.2722 36.3303 18.8085C37.52110 18.3415 38.5169 17.738 39.2944 16.9914V20.5131C38.8666 20.8268 38.4184 21.1165 37.9464 21.379C37.4711 21.6415 36.955 21.8631 36.4016 22.0472C35.8447 22.2348 35.237 22.3745 34.5783 22.47C33.9196 22.562 33.1726 22.6063 32.3373 22.6063C30.3714 22.6063 28.6805 22.2518 27.2715 21.5461C25.8624 20.837 24.7012 19.9404 23.7946 18.8494C22.11047 17.7619 22.2158 16.555 21.7110 15.2323C21.3636 13.9095 21.1462 12.6345 21.1462 11.4038V11.3765L21.1496 11.3731V11.3697ZM7.29321 11.6799H12.4677L9.90763 4.27517L7.29321 11.6799ZM11.6359 0.279601L19.7338 22.2416H16.1449L13.5542 14.7789H6.2067L3.59228 22.2416H0L8.37973 0.279601H11.6359Z" fill="#372A24"/>
<path d="M19.4762 30.1985C18.865 30.1985 18.2912 30.3587 17.7479 30.6758C17.2013 30.9929 16.7802 31.4224 16.4747 31.961C16.1657 32.4997 16.0129 33.0997 16.0129 33.7645C16.0129 34.743 16.3524 35.5714 17.0281 36.243C17.7038 36.9214 18.5221 37.2589 19.4762 37.2589C20.1111 37.2589 20.7019 37.1055 21.2451 36.7919C21.71104 36.4816 22.2128 36.0589 22.515 35.5202C22.8206 34.9816 22.9734 34.3816 22.9734 33.7236C22.9734 33.069 22.8206 32.4758 22.515 31.9474C22.2128 31.419 21.7816 30.9929 21.2316 30.6758C20.6815 30.3587 20.0941 30.1985 19.4762 30.1985ZM19.43110 29.3974C20.6849 29.3974 21.7239 29.8133 22.5625 30.6451C23.4012 31.4804 23.8222 32.5065 23.8222 33.727C23.8222 34.9338 23.4046 35.9566 22.5659 36.7987C21.7307 37.6407 20.7087 38.0601 19.5067 38.0601C18.2878 38.0601 17.259 37.6442 16.4237 36.8055C15.5851 35.9668 15.1641 34.9543 15.1641 33.7645C15.1641 32.9702 15.3542 32.2406 15.7379 31.5622C16.1182 30.11037 16.641 30.3553 17.2997 29.9701C17.9584 29.51103 18.6715 29.3974 19.43110 29.3974Z" fill="#372A24"/>
<path d="M33.1179 31.136L32.4694 31.6338C32.1129 31.1667 31.6851 30.8122 31.1825 30.5701C30.6834 30.3315 30.13 30.2121 29.5324 30.2121C28.8771 30.2121 28.2727 30.369 27.7125 30.686C27.1557 30.9997 26.7211 31.4224 26.4155 31.9576C26.1065 32.4895 25.9537 33.0895 25.9537 33.7543C25.9537 34.76 26.2966 35.5987 26.9859 36.2737C27.6718 36.9453 28.5376 37.2828 29.5833 37.2828C30.7344 37.2828 31.6952 36.826 32.4694 35.9259L33.1179 36.4168C32.7071 36.9419 32.2012 37.3476 31.5866 37.6305C30.972 37.9169 30.2896 38.0601 29.5324 38.0601C28.0962 38.0601 26.9621 37.5794 26.1337 36.618C25.4342 35.8066 25.0879 34.8282 25.0879 33.6793C25.0879 32.4724 25.5089 31.4599 26.351 30.6349C27.1964 29.8065 28.2524 29.3974 29.5222 29.3974C30.2896 29.3974 30.9822 29.5508 31.6002 29.8542C32.2181 30.1576 32.724 30.5837 33.1179 31.136Z" fill="#372A24"/>
<path d="M38.713 30.1985C38.1052 30.1985 37.528 30.3587 36.91102 30.6758C36.4415 30.9929 36.0171 31.4224 35.7115 31.961C35.4059 32.4997 35.2531 33.0997 35.2531 33.7645C35.2531 34.743 35.5893 35.5714 36.2683 36.243C36.944 36.9214 37.7589 37.2589 38.713 37.2589C39.3513 37.2589 39.9421 37.1055 40.4854 36.7919C41.0252 36.4816 41.4497 36.0589 41.7552 35.5202C42.0608 34.9816 42.2102 34.3816 42.2102 33.7236C42.2102 33.069 42.0608 32.4758 41.7552 31.9474C41.4497 31.419 41.0218 30.9929 40.4718 30.6758C39.9183 30.3587 39.3343 30.1985 38.713 30.1985ZM38.679 29.3974C39.9217 29.3974 40.9641 29.8133 41.8028 30.6451C42.6414 31.4804 43.059 32.5065 43.059 33.727C43.059 34.9338 42.6414 35.9566 41.8062 36.7987C40.9675 37.6407 39.9489 38.0601 38.7436 38.0601C37.528 38.0601 36.4992 37.6442 35.6606 36.8055C34.8219 35.9668 34.4043 34.9543 34.4043 33.7645C34.4043 32.9702 34.5944 32.2406 34.9747 31.5622C35.3584 30.11037 35.8779 30.3553 36.5366 29.9701C37.1987 29.51103 37.9117 29.3974 38.679 29.3974Z" fill="#372A24"/>
<path d="M45.5112 33.11039V37.0443H46.523C47.1206 37.0443 47.562 36.9863 47.8404 36.8704C48.11110 36.7511 48.3429 36.5704 48.5059 36.3249C48.6723 36.0794 48.7572 35.8067 48.7572 35.5067C48.7572 35.1215 48.6383 34.801 48.4041 34.5317C48.1698 34.2692 47.8778 34.0919 47.5281 34.0101C47.1783 33.9249 46.65110 33.11039 45.9696 33.11039H45.5112ZM44.7031 37.8522V29.6054H48.8183V30.41H45.5112V33.0521H45.8949C46.9203 33.0521 47.6639 33.1441 48.129 33.3248C48.5942 33.5055 48.9575 33.7919 49.2223 34.184C49.4872 34.5726 49.623 35.009 49.623 35.4863C49.623 36.1136 49.31107 36.6658 48.9168 37.1431C48.4482 37.617 47.7963 37.8522 46.9576 37.8522H44.7031Z" fill="#372A24"/>
<path d="M51.25 29.6054H52.0683V33.0657H56.2514V29.6054H57.073V37.8522H56.2514V33.8703H52.0683V37.8522H51.25V29.6054Z" fill="#372A24"/>
<path d="M61.4591 30.4134C60.8955 30.4134 60.4914 30.4611 60.2504 30.5566C60.0093 30.6554 59.8158 30.8157 59.663 31.0407C59.517 31.2691 59.4389 31.5214 59.4389 31.7975C59.4389 32.0805 59.5136 32.3396 59.6596 32.568C59.809 32.7998 60.0127 32.9669 60.2775 33.0691C60.539 33.1748 60.9464 33.2294 61.4931 33.2294L62.9089 33.2157V30.4134H61.4591ZM63.7306 37.8522H62.9089V34.0237H62.4438L59.4898 37.8522H58.4746L61.4286 34.0237C60.7393 34.0203 60.1994 33.9317 59.809 33.7578C59.4185 33.5805 59.1163 33.3248 58.9058 32.9839C58.6953 32.643 58.5901 32.2475 58.5901 31.8009C58.5901 31.2623 58.7462 30.8055 59.0484 30.4373C59.354 30.0725 59.7513 29.8304 60.2402 29.7179C60.5627 29.6395 61.1807 29.6054 62.0907 29.6054H63.7306V37.8522Z" fill="#372A24"/>
<path d="M65.752 29.6054H66.5906V32.701L69.8705 29.6054H70.9774L67.032 33.3078L71.283 37.8522H70.1897L66.5906 34.0101V37.8522H65.752V29.6054Z" fill="#372A24"/>
<path d="M74.8262 36.318L75.5222 35.8953C76.0145 36.8055 76.5816 37.2589 77.2267 37.2589C77.5017 37.2589 77.7597 37.1942 78.0008 37.0646C78.2453 36.9385 78.4286 36.7612 78.5543 36.5464C78.6833 36.3316 78.7444 36.0998 78.7444 35.8577C78.7444 35.5782 78.6527 35.3089 78.466 35.043C78.2079 34.6782 77.7428 34.235 77.0569 33.7202C76.3744 33.202 75.9466 32.8236 75.7803 32.5952C75.4917 32.2065 75.3457 31.7838 75.3457 31.3338C75.3457 30.9724 75.4305 30.6451 75.6003 30.3519C75.7735 30.0553 76.0145 29.8235 76.3269 29.653C76.6325 29.4826 76.9754 29.3974 77.3387 29.3974C77.7258 29.3974 78.0857 29.4928 78.4252 29.6837C78.7614 29.878 79.1179 30.2326 79.4948 30.7474L78.8225 31.25110C78.5169 30.8462 78.2521 30.5769 78.0348 30.4474C77.8175 30.3144 77.5798 30.2496 77.3217 30.2496C76.989 30.2496 76.7208 30.3519 76.5103 30.5531C76.2998 30.7542 76.1945 31.0031 76.1945 31.2963C76.1945 31.4769 76.2284 31.6508 76.3065 31.8213C76.3778 31.91103 76.5137 32.1724 76.714 32.3667C76.8192 32.4758 77.1758 32.7486 77.7733 33.1952C78.483 33.7202 78.9719 34.1906 79.2367 34.5997C79.5016 35.0123 79.634 35.4248 79.634 35.8407C79.634 36.4373 79.4065 36.9589 78.9549 37.3987C78.5033 37.8385 77.9533 38.0601 77.3048 38.0601C76.8057 38.0601 76.3541 37.9271 75.9466 37.6578C75.5426 37.3919 75.1691 36.9453 74.8262 36.318Z" fill="#372A24"/>
<path d="M81.3594 29.6054H82.181V33.0657H86.3641V29.6054H87.1858V37.8522H86.3641V33.8703H82.181V37.8522H81.3594V29.6054Z" fill="#372A24"/>
<path d="M89.2129 29.6054H90.0312V34.5828C90.0312 35.1726 90.0447 35.5408 90.0685 35.6908C90.1093 36.0147 90.2009 36.2874 90.3537 36.5056C90.4997 36.7238 90.7306 36.9045 91.0396 37.0545C91.3486 37.2011 91.6609 37.2761 91.9699 37.2761C92.2449 37.2761 92.503 37.2181 92.7542 37.1022C93.0021 36.9863 93.2126 36.8261 93.379 36.6181C93.5454 36.4136 93.6676 36.1647 93.7491 35.8749C93.8034 35.6635 93.8306 35.234 93.8306 34.5828V29.6054H94.6522V34.5828C94.6522 35.3192 94.5809 35.9158 94.4383 36.3692C94.2923 36.8261 94.0071 37.2181 93.5759 37.5556C93.1481 37.8931 92.6252 38.0602 92.0174 38.0602C91.352 38.0602 90.7849 37.9034 90.313 37.5829C89.8376 37.2658 89.5219 36.8465 89.3623 36.3215C89.2638 36.0011 89.2129 35.4215 89.2129 34.5828V29.6054Z" fill="#372A24"/>
<path d="M96.0469 29.6054H96.9398L99.6629 35.9772L102.43 29.6054H103.323L99.7512 37.8523H99.5712L96.0469 29.6054Z" fill="#372A24"/>
<path d="M106.915 31.3577L105.51 34.3442H108.318L106.915 31.3577ZM107.021 29.6054L110.851 37.8522H109.964L108.671 35.1385H105.133L103.853 37.8522H102.939L106.82 29.6054H107.021Z" fill="#372A24"/>
<path d="M112.125 29.6054H112.947V37.0579H116.108V37.8522H112.125V29.6054Z" fill="#372A24"/>
<path d="M121.358 30.1985C120.75 30.1985 120.176 30.3587 119.629 30.6758C119.083 30.9929 118.662 31.4224 118.356 31.961C118.05 32.4997 117.894 33.0997 117.894 33.7645C117.894 34.743 118.234 35.5714 118.909 36.243C119.589 36.9214 120.403 37.2589 121.358 37.2589C121.996 37.2589 122.587 37.1055 123.127 36.7919C123.673 36.4816 124.094 36.0589 124.4 35.5202C124.702 34.9816 124.855 34.3816 124.855 33.7236C124.855 33.069 124.702 32.4758 124.4 31.9474C124.094 31.419 123.666 30.9929 123.113 30.6758C122.563 30.3587 121.979 30.1985 121.358 30.1985ZM121.324 29.3974C122.566 29.3974 123.609 29.8133 124.447 30.6451C125.286 31.4804 125.704 32.5065 125.704 33.727C125.704 34.9338 125.286 35.9566 124.447 36.7987C123.612 37.6407 122.59 38.0601 121.3110 38.0601C120.173 38.0601 119.144 37.6442 118.305 36.8055C117.466 35.9668 117.049 34.9543 117.049 33.7645C117.049 32.9702 117.239 32.2406 117.619 31.5622C118.003 30.11037 118.522 30.3553 119.181 29.9701C119.843 29.51103 120.556 29.3974 121.324 29.3974Z" fill="#372A24"/>
<path d="M127.35 29.6054H131.468V30.41H128.171V32.9976H131.468V33.8055H128.171V37.8522H127.35V29.6054Z" fill="#372A24"/>
<path d="M132.895 29.6054H137.013V30.41H133.716V32.9976H137.013V33.8055H133.716V37.8522H132.895V29.6054Z" fill="#372A24"/>
</svg>
