<svg xmlns="http://www.w3.org/2000/svg" xml:space="preserve" width="446" height="111" style="shape-rendering:geometricPrecision;text-rendering:geometricPrecision;image-rendering:optimizeQuality;fill-rule:evenodd;clip-rule:evenodd" viewBox="0 0 449.9 112.07"><path d="M51.17 88.92c-1.8 0-3.5.47-5.11 1.4-1.61.94-2.87 2.21-3.77 3.79-.9 1.59-1.36 3.36-1.36 5.31 0 2.88 1 5.32 3 7.3 2 1.99 4.42 2.99 7.24 2.99 1.88 0 3.63-.46 5.23-1.37a9.8 9.8 0 0 0 3.76-3.75c.89-1.59 1.34-3.35 1.34-5.29 0-1.93-.45-3.68-1.34-5.23-.9-1.56-2.17-2.81-3.8-3.75-1.63-.93-3.36-1.4-5.19-1.4m-.11-2.36c3.68 0 6.76 1.23 9.24 3.68 2.48 2.46 3.71 5.48 3.71 9.07 0 3.55-1.23 6.57-3.71 9.05-2.47 2.47-5.48 3.71-9.04 3.71-3.6 0-6.64-1.24-9.12-3.7-2.48-2.47-3.72-5.45-3.72-8.95a13 13 0 0 1 1.69-6.48c1.13-2 2.67-3.56 4.62-4.69 1.95-1.12 4.06-1.69 6.33-1.69m40.45 5.12-1.92 1.46c-1.06-1.37-2.32-2.41-3.8-3.12s-3.11-1.06-4.89-1.06c-1.93 0-3.72.46-5.38 1.39-1.65.93-2.93 2.18-3.83 3.75-.92 1.57-1.37 3.33-1.37 5.29 0 2.96 1.02 5.43 3.05 7.41q3.045 2.97 7.68 2.97c3.41 0 6.25-1.33 8.54-3.99l1.92 1.45a12.45 12.45 0 0 1-4.54 3.58c-1.81.84-3.83 1.26-6.07 1.26-4.24 0-7.59-1.42-10.05-4.24-2.06-2.39-3.09-5.27-3.09-8.65 0-3.56 1.25-6.55 3.74-8.98 2.5-2.43 5.62-3.64 9.38-3.64 2.26 0 4.31.44 6.13 1.34q2.745 1.35 4.5 3.78m16.54-2.76c-1.8 0-3.5.47-5.11 1.4a10.23 10.23 0 0 0-3.77 3.79c-.9 1.59-1.36 3.36-1.36 5.31 0 2.88 1 5.32 3.01 7.3 1.99 1.99 4.41 2.99 7.23 2.99 1.89 0 3.63-.46 5.23-1.37a9.8 9.8 0 0 0 3.76-3.75c.9-1.59 1.35-3.35 1.35-5.29 0-1.93-.45-3.68-1.35-5.23-.9-1.56-2.17-2.81-3.8-3.75-1.63-.93-3.36-1.4-5.19-1.4m-.11-2.36c3.68 0 6.76 1.23 9.24 3.68 2.48 2.46 3.72 5.48 3.72 9.07 0 3.55-1.24 6.57-3.71 9.05-2.47 2.47-5.49 3.71-9.05 3.71-3.6 0-6.64-1.24-9.12-3.7-2.48-2.47-3.71-5.45-3.71-8.95 0-2.33.56-4.49 1.69-6.48 1.13-2 2.67-3.56 4.61-4.69a12.53 12.53 0 0 1 6.33-1.69m20.21 13.21v9.31h2.98c1.78 0 3.08-.17 3.9-.52.83-.35 1.48-.88 1.97-1.61.49-.71.74-1.52.74-2.41 0-1.12-.35-2.08-1.04-2.85-.7-.78-1.56-1.3-2.59-1.55-1.04-.25-2.57-.37-4.61-.37zm-2.4 11.69V87.17h12.17v2.38h-9.77v7.77h1.13q4.545 0 6.6.81 2.055.795 3.24 2.52a6.7 6.7 0 0 1 1.18 3.84c0 1.85-.69 3.48-2.08 4.87-1.39 1.4-3.32 2.1-5.8 2.1zm19.35-24.29h2.43v10.19h12.37V87.17h2.42v24.29h-2.42V99.74h-12.37v11.72h-2.43zm30.19 2.38q-2.49 0-3.57.42c-.71.3-1.29.77-1.73 1.43-.45.67-.66 1.41-.66 2.23 0 .83.21 1.59.65 2.27a3.76 3.76 0 0 0 1.82 1.48c.77.3 1.97.46 3.59.46l4.19-.03v-8.26zm6.72 21.91h-2.43v-11.28h-1.37l-8.74 11.28h-3l8.73-11.28c-2.04-.01-3.63-.27-4.79-.78-1.15-.51-2.04-1.27-2.66-2.28-.62-1-.93-2.17-.93-3.48q0-2.385 1.35-4.02c.9-1.08 2.08-1.79 3.52-2.12.95-.22 2.78-.33 5.48-.33h4.84zm5.97-24.29h2.48v9.11l9.71-9.11h3.26l-11.67 10.9 12.58 13.39h-3.24l-10.64-11.32v11.32h-2.48zm31.74 22h10.38v-22h2.43v22h10.57v-22h2.42v24.29h-28.23V87.17h2.43zm29.82-21.93h2.75l7.35 16.5 6.72-16.57h2.67L259.8 109c-.86 2.04-2.38 3.07-4.57 3.07q-1.32 0-2.49-.54c-.78-.35-1.78-1.2-2.97-2.53l1.76-1.46c1.22 1.2 2.04 1.89 2.45 2.05.4.17.81.25 1.23.25.64 0 1.19-.17 1.66-.51s.98-1.2 1.55-2.56zm26.15 12.53v9.31h3.01c1.78 0 3.08-.17 3.9-.52.83-.35 1.49-.89 2-1.62q.75-1.11.75-2.4c0-1.08-.35-2.02-1.06-2.82q-1.05-1.215-2.91-1.65c-.82-.2-2.27-.3-4.32-.3zm0-10.22v7.77h1.39c1.69 0 2.93-.15 3.72-.47.8-.31 1.43-.8 1.89-1.48s.7-1.43.7-2.26q0-1.665-1.17-2.61c-.78-.64-2.02-.95-3.72-.95zm-2.38-2.38h4.79q2.895 0 4.44.69 1.56.675 2.46 2.1t.9 3.15c0 1.08-.27 2.07-.79 2.95-.53.89-1.3 1.61-2.32 2.15 1.26.44 2.23.94 2.91 1.52.68.57 1.21 1.28 1.59 2.09q.57 1.23.57 2.67c0 1.95-.71 3.6-2.14 4.95-1.42 1.35-3.34 2.02-5.74 2.02h-6.67zm28.97 5.16-4.16 8.79h8.31zm.31-5.16 11.32 24.29h-2.62l-3.82-7.99h-10.46l-3.78 7.99h-2.71l11.47-24.29zm34.75 24.29h-2.64l-8.05-18.77-8.18 18.77h-2.64l10.56-24.29h.53zm15.75-22.54c-1.79 0-3.5.47-5.11 1.4a10.13 10.13 0 0 0-3.76 3.79c-.91 1.59-1.36 3.36-1.36 5.31 0 2.88 1 5.32 3 7.3 2 1.99 4.41 2.99 7.23 2.99 1.89 0 3.63-.46 5.24-1.37a9.8 9.8 0 0 0 3.75-3.75c.9-1.59 1.35-3.35 1.35-5.29 0-1.93-.45-3.68-1.35-5.23-.89-1.56-2.16-2.81-3.79-3.75-1.64-.93-3.36-1.4-5.2-1.4m-.11-2.36c3.69 0 6.76 1.23 9.24 3.68 2.48 2.46 3.72 5.48 3.72 9.07 0 3.55-1.24 6.57-3.71 9.05-2.47 2.47-5.49 3.71-9.05 3.71-3.6 0-6.64-1.24-9.12-3.7-2.47-2.47-3.71-5.45-3.71-8.95 0-2.33.56-4.49 1.69-6.48 1.13-2 2.67-3.56 4.62-4.69 1.95-1.12 4.06-1.69 6.32-1.69m20.27 13.21v9.31h3.01c1.78 0 3.08-.17 3.91-.52.82-.35 1.49-.89 1.99-1.62q.75-1.11.75-2.4 0-1.62-1.05-2.82-1.065-1.215-2.91-1.65-1.245-.3-4.32-.3zm0-10.22v7.77h1.39c1.69 0 2.93-.15 3.73-.47.79-.31 1.42-.8 1.88-1.48.47-.68.7-1.43.7-2.26q0-1.665-1.17-2.61c-.78-.64-2.02-.95-3.71-.95zm-2.38-2.38h4.8q2.88 0 4.44.69c1.03.45 1.85 1.15 2.45 2.1q.9 1.425.9 3.15c0 1.08-.27 2.07-.79 2.95-.53.89-1.3 1.61-2.32 2.15 1.26.44 2.24.94 2.92 1.52.68.57 1.21 1.28 1.59 2.09.37.82.56 1.71.56 2.67q0 2.925-2.13 4.95c-1.43 1.35-3.34 2.02-5.75 2.02h-6.67zm28.97 5.16-4.16 8.79h8.31zm.31-5.16 11.33 24.29h-2.62l-3.82-7.99h-10.47l-3.78 7.99h-2.71l11.48-24.29z" style="fill:#35302a;fill-rule:nonzero"/><path d="M413.12 34.39h15.3l-7.57-21.81zM425.96.82l23.94 64.67h-10.61l-7.66-21.97h-21.72l-7.74 21.97h-10.61L416.33.82zm-41.8 0v64.67h-9.88V.82zm-32.91 64.67V22.37l-22.3 43.12h-8.8l-21.64-42.38v42.38h-9.88V.82h10.7l25.51 51.75L351.25.82h9.87v64.67zm-72.74 0h-30.19V.82h30.19v9.13h-20.32v18.59h14.4v9.14h-14.4v18.68h20.32zm-82.77-9.14h3.95c4.66 0 8.82-.39 12.5-1.19s6.79-2.13 9.34-4.01c2.55-1.86 4.48-4.29 5.8-7.29 1.32-2.99 1.97-6.68 1.97-11.08 0-4.24-.68-7.8-2.05-10.71-1.37-2.92-3.35-5.26-5.93-7.05-2.57-1.8-5.7-3.09-9.38-3.88-3.67-.79-7.84-1.2-12.51-1.2h-3.7v46.41zm-9.87 9.14V.82h11.51c6.59 0 12.49.59 17.74 1.77 5.24 1.18 9.68 3.06 13.33 5.68 3.64 2.6 6.43 5.96 8.35 10.07q2.88 6.18 2.88 15.06c0 5.59-.96 10.41-2.88 14.44s-4.7 7.36-8.31 10c-3.62 2.63-8.04 4.56-13.25 5.79-5.21 1.24-11.11 1.86-17.69 1.86h-11.69zm-44.02-31.1h15.3l-7.57-21.8zM154.68.82l23.95 64.67h-10.62l-7.65-21.97h-21.72l-7.74 21.97h-10.61L145.05.82zM62.53 33.48c0-2.19.28-4.55.82-7.07.55-2.52 1.4-5.03 2.56-7.53 1.15-2.49 2.61-4.88 4.4-7.16 1.78-2.27 3.9-4.28 6.38-6.01 2.46-1.72 5.26-3.1 8.38-4.15C88.2.52 91.71 0 95.61 0c4.6 0 8.61.57 12.01 1.73q5.1 1.725 8.55 4.44v11.69c-1.15-1.16-2.4-2.27-3.74-3.33-1.34-1.07-2.84-2-4.49-2.8-1.64-.79-3.48-1.43-5.51-1.89-2.02-.47-4.3-.7-6.82-.7q-6.255 0-10.62 2.46c-2.91 1.65-5.27 3.69-7.08 6.13-1.8 2.45-3.11 5.09-3.9 7.95-.8 2.85-1.2 5.45-1.2 7.81 0 2.63.4 5.35 1.2 8.15.79 2.8 2.1 5.37 3.9 7.74 1.82 2.35 4.17 4.28 7.08 5.79s6.44 2.26 10.62 2.26c4.33 0 8.26-.68 11.8-2.05s6.46-3.15 8.76-5.35V60.4q-1.89 1.395-3.99 2.55c-1.4.77-2.92 1.42-4.57 1.97-1.64.55-3.44.96-5.38 1.24-1.95.27-4.16.41-6.63.41-5.81 0-10.81-1.04-14.97-3.12-4.17-2.09-7.6-4.73-10.29-7.94-2.68-3.22-4.66-6.77-5.92-10.66-1.27-3.89-1.9-7.65-1.9-11.27v-.08zm-40.97.91h15.3l-7.57-21.8zM34.4.82l23.94 64.67H47.72l-7.65-21.97H18.35l-7.74 21.97H0L24.77.82z" style="fill:#35302a"/></svg>